<svg width="4" height="16" viewBox="0 0 4 16" fill="none" xmlns="http://www.w3.org/2000/svg">
<path d="M1.99999 8.83333C2.46023 8.83333 2.83332 8.46023 2.83332 7.99999C2.83332 7.53976 2.46023 7.16666 1.99999 7.16666C1.53975 7.16666 1.16666 7.53976 1.16666 7.99999C1.16666 8.46023 1.53975 8.83333 1.99999 8.83333Z" stroke="#344054" stroke-width="1.66667" stroke-linecap="round" stroke-linejoin="round"/>
<path d="M1.99999 2.99999C2.46023 2.99999 2.83332 2.6269 2.83332 2.16666C2.83332 1.70642 2.46023 1.33333 1.99999 1.33333C1.53975 1.33333 1.16666 1.70642 1.16666 2.16666C1.16666 2.6269 1.53975 2.99999 1.99999 2.99999Z" stroke="#344054" stroke-width="1.66667" stroke-linecap="round" stroke-linejoin="round"/>
<path d="M1.99999 14.6667C2.46023 14.6667 2.83332 14.2936 2.83332 13.8333C2.83332 13.3731 2.46023 13 1.99999 13C1.53975 13 1.16666 13.3731 1.16666 13.8333C1.16666 14.2936 1.53975 14.6667 1.99999 14.6667Z" stroke="#344054" stroke-width="1.66667" stroke-linecap="round" stroke-linejoin="round"/>
</svg>
