<svg width="16" height="16" viewBox="0 0 16 16" fill="none" xmlns="http://www.w3.org/2000/svg">
<path d="M6.05998 6C6.21672 5.55444 6.52608 5.17873 6.93328 4.93942C7.34048 4.7001 7.81924 4.61262 8.28476 4.69247C8.75028 4.77232 9.17252 5.01434 9.4767 5.37568C9.78087 5.73702 9.94735 6.19434 9.94665 6.66666C9.94665 8 7.94665 8.66666 7.94665 8.66666M7.99998 11.3333H8.00665M14.6666 8C14.6666 11.6819 11.6819 14.6667 7.99998 14.6667C4.31808 14.6667 1.33331 11.6819 1.33331 8C1.33331 4.3181 4.31808 1.33333 7.99998 1.33333C11.6819 1.33333 14.6666 4.3181 14.6666 8Z" stroke="#98A2B3" stroke-width="1.33333" stroke-linecap="round" stroke-linejoin="round"/>
</svg>
