<svg width="40" height="40" viewBox="0 0 40 40" fill="none" xmlns="http://www.w3.org/2000/svg">
<rect width="40" height="40" rx="20" fill="#FFF2EA"/>
<path d="M14.7537 14.8182H16.5833V21.9773C16.58 22.6335 16.4408 23.1986 16.1657 23.6726C15.8906 24.1432 15.5061 24.5062 15.0123 24.7614C14.5217 25.0133 13.95 25.1392 13.2971 25.1392C12.7005 25.1392 12.1635 25.0331 11.6863 24.821C11.2123 24.6056 10.8361 24.2874 10.5577 23.8665C10.2793 23.4455 10.1401 22.9219 10.1401 22.2955H11.9746C11.9779 22.5705 12.0376 22.8075 12.1536 23.0064C12.2729 23.2053 12.437 23.3577 12.6458 23.4638C12.8546 23.5698 13.0949 23.6229 13.3667 23.6229C13.6616 23.6229 13.9119 23.5616 14.1174 23.4389C14.3229 23.313 14.4786 23.1274 14.5847 22.8821C14.6941 22.6368 14.7504 22.3352 14.7537 21.9773V14.8182ZM18.5843 14.8182H20.8414L23.8642 22.196H23.9835L27.0062 14.8182H29.2633V25H27.4934V18.005H27.399L24.585 24.9702H23.2626L20.4487 17.9901H20.3542V25H18.5843V14.8182Z" fill="#93312B"/>
</svg>

