<svg width="14" height="14" viewBox="0 0 14 14" fill="none" xmlns="http://www.w3.org/2000/svg">
<path fill-rule="evenodd" clip-rule="evenodd" d="M1.33344 8.28901C1.33344 8.55818 1.10943 8.77669 0.833487 8.77669C0.557541 8.77669 0.333538 8.55818 0.333538 8.28901V3.46598C0.333538 1.91679 1.62561 0.656403 3.21441 0.656403H6.37838C7.97042 0.656403 9.26574 1.91995 9.26574 3.47295V4.06261C9.26574 4.33115 9.04174 4.54966 8.76579 4.54966C8.48985 4.54966 8.26585 4.33115 8.26585 4.06261V3.47295C8.26585 2.45704 7.41918 1.63177 6.37838 1.63177H3.21441C2.17686 1.63177 1.33344 2.45514 1.33344 3.46598V8.28901ZM8.26565 9.9175C8.26565 9.64832 8.48965 9.42981 8.7656 9.42981C9.04155 9.42981 9.26555 9.64832 9.26555 9.9175V10.5135C9.26555 12.0627 7.97347 13.3231 6.38467 13.3231H3.22006C1.62867 13.3231 0.333344 12.0595 0.333344 10.5065C0.333344 10.2373 0.557347 10.0195 0.833292 10.0195C1.10924 10.0195 1.33324 10.2373 1.33324 10.5065C1.33324 11.5224 2.17991 12.3477 3.22006 12.3477H6.38467C7.42223 12.3477 8.26565 11.525 8.26565 10.5135V9.9175ZM13.6289 6.80366C13.5516 6.62061 13.3692 6.50154 13.1666 6.50154H5.36608C5.09013 6.50154 4.86548 6.72069 4.86548 6.98986C4.86548 7.25904 5.09013 7.47755 5.36608 7.47755H11.9563L10.9168 8.48712C10.7207 8.67713 10.7207 8.98558 10.9155 9.17685C11.0129 9.27249 11.1415 9.32062 11.2694 9.32062C11.3973 9.32062 11.5245 9.27249 11.6226 9.17812L13.5198 7.33568C13.6626 7.19634 13.7061 6.98606 13.6289 6.80366ZM11.7479 6.09689C11.6206 6.09689 11.4934 6.04939 11.396 5.95565L10.9175 5.49393C10.7214 5.30456 10.7201 4.99548 10.9142 4.80484C11.109 4.6123 11.4245 4.61103 11.6213 4.80104L12.0992 5.26212C12.2959 5.45213 12.2972 5.76058 12.1031 5.95185C12.005 6.04812 11.8765 6.09689 11.7479 6.09689Z" fill="#091E42"/>
</svg>
