<svg width="40" height="40" viewBox="0 0 40 40" fill="none" xmlns="http://www.w3.org/2000/svg">
<rect width="40" height="40" rx="20" fill="#FFF2EA"/>
<path d="M10.7404 16.3643V14.8182H18.864V16.3643H15.717V25H13.8874V16.3643H10.7404ZM29.0769 19.9091C29.0769 21.0062 28.8714 21.9458 28.4604 22.728C28.0527 23.5069 27.4959 24.1035 26.79 24.5178C26.0873 24.9321 25.2902 25.1392 24.3986 25.1392C23.507 25.1392 22.7083 24.9321 22.0023 24.5178C21.2997 24.1001 20.7428 23.5019 20.3319 22.723C19.9242 21.9408 19.7203 21.0028 19.7203 19.9091C19.7203 18.812 19.9242 17.8741 20.3319 17.0952C20.7428 16.313 21.2997 15.7147 22.0023 15.3004C22.7083 14.8861 23.507 14.679 24.3986 14.679C25.2902 14.679 26.0873 14.8861 26.79 15.3004C27.4959 15.7147 28.0527 16.313 28.4604 17.0952C28.8714 17.8741 29.0769 18.812 29.0769 19.9091ZM27.2225 19.9091C27.2225 19.1368 27.1015 18.4856 26.8596 17.9553C26.6209 17.4216 26.2895 17.0189 25.8652 16.7472C25.441 16.4721 24.9521 16.3345 24.3986 16.3345C23.8451 16.3345 23.3562 16.4721 22.932 16.7472C22.5078 17.0189 22.1747 17.4216 21.9327 17.9553C21.6941 18.4856 21.5748 19.1368 21.5748 19.9091C21.5748 20.6813 21.6941 21.3343 21.9327 21.8679C22.1747 22.3982 22.5078 22.8009 22.932 23.076C23.3562 23.3478 23.8451 23.4837 24.3986 23.4837C24.9521 23.4837 25.441 23.3478 25.8652 23.076C26.2895 22.8009 26.6209 22.3982 26.8596 21.8679C27.1015 21.3343 27.2225 20.6813 27.2225 19.9091Z" fill="#93312B"/>
</svg>
