<svg width="28" height="28" viewBox="0 0 28 28" fill="none" xmlns="http://www.w3.org/2000/svg">
<rect x="1" y="1" width="26" height="26" rx="13" fill="#F7E8EF"/>
<rect x="1" y="1" width="26" height="26" rx="13" stroke="white" stroke-width="2"/>
<path d="M9.63494 10.2727V19H8.31392V11.5938H8.26278L6.17472 12.9574V11.696L8.35227 10.2727H9.63494ZM11.9957 19V18.0455L14.9489 14.9858C15.2642 14.6534 15.5241 14.3622 15.7287 14.1122C15.9361 13.8594 16.0909 13.6193 16.1932 13.392C16.2955 13.1648 16.3466 12.9233 16.3466 12.6676C16.3466 12.3778 16.2784 12.1278 16.142 11.9176C16.0057 11.7045 15.8196 11.5412 15.5838 11.4276C15.348 11.3111 15.0824 11.2528 14.7869 11.2528C14.4744 11.2528 14.2017 11.3168 13.9688 11.4446C13.7358 11.5724 13.5568 11.7528 13.4318 11.9858C13.3068 12.2187 13.2443 12.4915 13.2443 12.804H11.9872C11.9872 12.2727 12.1094 11.8082 12.3537 11.4105C12.598 11.0128 12.9332 10.7045 13.3594 10.4858C13.7855 10.2642 14.2699 10.1534 14.8125 10.1534C15.3608 10.1534 15.8438 10.2628 16.2614 10.4815C16.6818 10.6974 17.0099 10.9929 17.2457 11.3679C17.4815 11.7401 17.5994 12.1605 17.5994 12.6293C17.5994 12.9531 17.5384 13.2699 17.4162 13.5795C17.2969 13.8892 17.0881 14.2344 16.7898 14.6151C16.4915 14.9929 16.0767 15.4517 15.5455 15.9915L13.8111 17.8068V17.8707H17.7401V19H11.9957Z" fill="#6A1039"/>
</svg>
