<svg width="14" height="15" viewBox="0 0 14 15" fill="none" xmlns="http://www.w3.org/2000/svg">
<path d="M13.5037 13.2377L11.2121 10.9972L11.1584 10.9155C11.0586 10.8161 10.922 10.7601 10.7795 10.7601C10.637 10.7601 10.5004 10.8161 10.4005 10.9155C8.45303 12.7022 5.45214 12.7993 3.38804 11.1425C1.32395 9.48561 0.837153 6.58891 2.2505 4.37344C3.66384 2.15798 6.53876 1.31123 8.96861 2.39475C11.3985 3.47828 12.6292 6.15586 11.8447 8.65172C11.7882 8.83203 11.8344 9.02811 11.9659 9.16611C12.0973 9.3041 12.2941 9.36304 12.4821 9.32072C12.67 9.2784 12.8206 9.14126 12.8771 8.96095C13.815 5.99909 12.3985 2.8117 9.54412 1.4607C6.6897 0.109703 3.25393 1.00054 1.45941 3.55694C-0.335112 6.11333 0.0501601 9.56809 2.36599 11.6863C4.68183 13.8046 8.23323 13.9506 10.7228 12.0299L12.7518 14.0137C12.9614 14.2177 13.3002 14.2177 13.5097 14.0137C13.719 13.8068 13.719 13.4737 13.5097 13.2669L13.5037 13.2377Z" fill="#667085"/>
</svg>
